<svg xmlns="http://www.w3.org/2000/svg" width="24" height="24.026" viewBox="0 0 24 24.026">
  <path id="Union_133" data-name="Union 133" d="M18.525,20.988a11.825,11.825,0,0,1-2.148,1.16,12.077,12.077,0,0,1-9.177,0,11.771,11.771,0,0,1-3.747-2.47A11.476,11.476,0,0,1,.926,16.013a11.327,11.327,0,0,1,0-8.973A11.476,11.476,0,0,1,3.453,3.376,11.771,11.771,0,0,1,7.2.906a12.077,12.077,0,0,1,9.177,0,11.78,11.78,0,0,1,3.747,2.47A11.488,11.488,0,0,1,22.651,7.04a11.336,11.336,0,0,1,0,8.973,11.434,11.434,0,0,1-1.607,2.654L24,21.611l-2.425,2.414ZM3.43,11.527a8.459,8.459,0,0,0,8.359,8.538,8.459,8.459,0,0,0,8.359-8.538,8.459,8.459,0,0,0-8.359-8.538A8.459,8.459,0,0,0,3.43,11.527Z" fill="#d1d1d1"/>
</svg>
